<?xml version="1.0" encoding="utf-8"?>
<!-- Generator: Adobe Illustrator 16.0.0, SVG Export Plug-In . SVG Version: 6.00 Build 0)  -->
<!DOCTYPE svg PUBLIC "-//W3C//DTD SVG 1.1//EN" "http://www.w3.org/Graphics/SVG/1.1/DTD/svg11.dtd">
<svg version="1.1" id="Layer_1" xmlns="http://www.w3.org/2000/svg" xmlns:xlink="http://www.w3.org/1999/xlink" x="0px" y="0px"
	 width="73.834px" height="72.101px" viewBox="0 0 73.834 72.101" enable-background="new 0 0 73.834 72.101" xml:space="preserve">
<g>
	<circle fill="#9D7651" cx="36.917" cy="36.05" r="33"/>
	<g>
		<path fill="#FFFFFF" d="M20.243,33.053v1.017h0.035c0.194-0.374,0.45-0.666,0.766-0.877c0.315-0.21,0.719-0.315,1.21-0.315
			c0.397,0,0.758,0.098,1.081,0.293c0.323,0.194,0.54,0.49,0.648,0.889c0.179-0.398,0.444-0.694,0.795-0.889
			c0.351-0.195,0.725-0.293,1.122-0.293c1.333,0,1.999,0.706,1.999,2.116v4.092h-0.736v-4.058c0-0.498-0.105-0.878-0.315-1.139
			c-0.21-0.262-0.581-0.393-1.11-0.393c-0.32,0-0.585,0.062-0.795,0.182c-0.211,0.122-0.378,0.283-0.503,0.485
			c-0.125,0.203-0.212,0.435-0.263,0.696c-0.05,0.261-0.076,0.531-0.076,0.812v3.414h-0.736v-4.092c0-0.202-0.021-0.396-0.064-0.578
			c-0.043-0.184-0.113-0.344-0.21-0.48c-0.098-0.135-0.228-0.243-0.392-0.321c-0.164-0.077-0.362-0.117-0.596-0.117
			c-0.312,0-0.583,0.058-0.812,0.17c-0.229,0.113-0.417,0.269-0.561,0.468s-0.251,0.433-0.321,0.701
			c-0.07,0.27-0.105,0.563-0.105,0.883v3.367h-0.736v-6.033H20.243z"/>
		<path fill="#FFFFFF" d="M33.364,33.135c0.354,0.171,0.652,0.401,0.894,0.689s0.425,0.625,0.549,1.011
			c0.125,0.385,0.188,0.797,0.188,1.233c0,0.438-0.062,0.848-0.188,1.232c-0.124,0.387-0.307,0.725-0.549,1.014
			c-0.242,0.287-0.54,0.516-0.894,0.682c-0.355,0.168-0.762,0.252-1.222,0.252s-0.867-0.084-1.222-0.252
			c-0.354-0.166-0.653-0.395-0.894-0.682c-0.242-0.289-0.425-0.627-0.549-1.014c-0.125-0.385-0.187-0.795-0.187-1.232
			c0-0.436,0.062-0.848,0.187-1.233c0.125-0.386,0.308-0.723,0.549-1.011c0.241-0.288,0.54-0.519,0.894-0.689
			s0.762-0.258,1.222-0.258S33.009,32.964,33.364,33.135z M31.219,33.719c-0.265,0.148-0.485,0.343-0.661,0.584
			c-0.175,0.242-0.308,0.517-0.397,0.824c-0.089,0.309-0.134,0.623-0.134,0.941c0,0.32,0.045,0.635,0.134,0.941
			c0.089,0.309,0.222,0.582,0.397,0.824c0.175,0.24,0.396,0.436,0.661,0.584c0.265,0.148,0.573,0.223,0.923,0.223
			s0.659-0.074,0.924-0.223c0.265-0.148,0.485-0.344,0.66-0.584c0.175-0.242,0.307-0.516,0.397-0.824
			c0.09-0.307,0.135-0.621,0.135-0.941c0-0.318-0.045-0.633-0.135-0.941c-0.09-0.307-0.222-0.582-0.397-0.824
			c-0.175-0.241-0.396-0.436-0.66-0.584c-0.265-0.147-0.573-0.223-0.924-0.223S31.483,33.571,31.219,33.719z"/>
		<path fill="#FFFFFF" d="M40.079,33.883c-0.273-0.258-0.654-0.387-1.146-0.387c-0.351,0-0.659,0.075-0.923,0.223
			c-0.266,0.148-0.486,0.343-0.661,0.584c-0.175,0.242-0.308,0.517-0.397,0.824c-0.09,0.309-0.135,0.623-0.135,0.941
			c0,0.32,0.045,0.635,0.135,0.941c0.09,0.309,0.223,0.582,0.397,0.824c0.175,0.24,0.396,0.436,0.661,0.584
			c0.264,0.148,0.572,0.223,0.923,0.223c0.226,0,0.44-0.043,0.644-0.129c0.202-0.086,0.381-0.205,0.537-0.357
			c0.156-0.15,0.285-0.332,0.386-0.543s0.163-0.439,0.187-0.689h0.736c-0.102,0.732-0.369,1.303-0.807,1.713
			c-0.436,0.408-0.997,0.613-1.683,0.613c-0.46,0-0.867-0.084-1.222-0.252c-0.354-0.166-0.652-0.395-0.895-0.682
			c-0.241-0.289-0.425-0.627-0.55-1.014c-0.123-0.385-0.186-0.795-0.186-1.232c0-0.436,0.062-0.848,0.186-1.233
			c0.125-0.386,0.309-0.723,0.55-1.011c0.242-0.288,0.54-0.519,0.895-0.689s0.762-0.258,1.222-0.258
			c0.646,0,1.194,0.172,1.642,0.515c0.449,0.344,0.715,0.861,0.801,1.555H40.64C40.538,34.495,40.353,34.14,40.079,33.883z"/>
		<path fill="#FFFFFF" d="M43.47,30.738v3.355h0.023c0.139-0.367,0.389-0.662,0.747-0.884s0.753-0.333,1.181-0.333
			c0.421,0,0.773,0.056,1.059,0.164c0.283,0.109,0.512,0.263,0.684,0.461c0.171,0.199,0.292,0.443,0.361,0.731
			c0.07,0.288,0.105,0.612,0.105,0.971v3.881h-0.736V35.32c0-0.256-0.023-0.497-0.07-0.718s-0.129-0.415-0.245-0.578
			c-0.116-0.164-0.274-0.293-0.474-0.387c-0.199-0.093-0.445-0.141-0.742-0.141s-0.559,0.053-0.789,0.159
			c-0.23,0.104-0.424,0.249-0.584,0.433c-0.16,0.182-0.285,0.4-0.374,0.653c-0.09,0.255-0.138,0.528-0.146,0.825v3.52h-0.737v-8.347
			H43.47z"/>
		<path fill="#FFFFFF" d="M49.466,33.988c0.124-0.258,0.293-0.468,0.508-0.632s0.465-0.284,0.754-0.361
			c0.289-0.079,0.607-0.118,0.959-0.118c0.265,0,0.529,0.025,0.795,0.076c0.264,0.051,0.502,0.146,0.713,0.286
			c0.211,0.142,0.381,0.338,0.514,0.591c0.133,0.254,0.199,0.583,0.199,0.988v3.203c0,0.295,0.145,0.443,0.432,0.443
			c0.086,0,0.164-0.016,0.234-0.047v0.621c-0.086,0.016-0.162,0.027-0.228,0.033c-0.066,0.008-0.15,0.014-0.251,0.014
			c-0.188,0-0.338-0.027-0.451-0.078c-0.112-0.049-0.2-0.121-0.263-0.215c-0.062-0.094-0.103-0.205-0.122-0.334
			s-0.029-0.271-0.029-0.426h-0.023c-0.133,0.195-0.268,0.367-0.404,0.52c-0.136,0.152-0.287,0.279-0.455,0.381
			s-0.359,0.178-0.572,0.232c-0.215,0.055-0.471,0.082-0.766,0.082c-0.281,0-0.545-0.033-0.789-0.098
			c-0.246-0.068-0.461-0.174-0.643-0.316c-0.184-0.145-0.328-0.328-0.434-0.551c-0.105-0.221-0.158-0.484-0.158-0.789
			c0-0.42,0.094-0.748,0.281-0.986s0.434-0.418,0.742-0.545c0.308-0.123,0.654-0.211,1.041-0.262c0.385-0.051,0.776-0.1,1.174-0.146
			c0.156-0.016,0.293-0.035,0.409-0.059c0.117-0.023,0.214-0.064,0.292-0.123c0.078-0.057,0.139-0.137,0.182-0.238
			c0.043-0.102,0.064-0.235,0.064-0.398c0-0.25-0.041-0.454-0.123-0.613c-0.082-0.16-0.195-0.287-0.339-0.381
			s-0.312-0.157-0.503-0.193c-0.191-0.035-0.396-0.053-0.613-0.053c-0.468,0-0.85,0.112-1.146,0.334
			c-0.296,0.223-0.452,0.578-0.468,1.069h-0.736C49.267,34.549,49.341,34.245,49.466,33.988z M53.147,35.787
			c-0.047,0.088-0.137,0.148-0.27,0.189c-0.133,0.037-0.248,0.066-0.35,0.082c-0.312,0.053-0.634,0.102-0.965,0.145
			c-0.332,0.043-0.633,0.107-0.906,0.193s-0.496,0.209-0.672,0.369c-0.175,0.158-0.264,0.387-0.264,0.682
			c0,0.189,0.037,0.354,0.111,0.498s0.174,0.268,0.299,0.373s0.268,0.186,0.432,0.24s0.332,0.082,0.504,0.082
			c0.279,0,0.549-0.043,0.807-0.129c0.257-0.086,0.48-0.211,0.672-0.375c0.189-0.162,0.342-0.361,0.455-0.596
			c0.113-0.232,0.17-0.498,0.17-0.795v-0.959H53.147z"/>
	</g>
</g>
</svg>
